#!OML:ASF H:\Male1\Project 1\Capture day 1\Session 1\Male1.ASF
:FULLY-SPECIFIED
:DEGREES
271
root -4.59107 15.2457 1.43676 177.882 23.024 -183.346
lowerback 3.42624 0.513519 -5.44442
upperback 4.76102 0.976472 -2.05538
thorax 2.95687 0.485036 0.925782
lowerneck -8.03793 -3.13587 -0.790561
upperneck 19.2075 -4.67947 6.32287
head 7.38414 -1.43714 1.82111
rclavicle 2.5842e-015 6.75868e-015
rhumerus -33.2268 6.61628 -91.2684
rradius 35.7569
rwrist -19.4565
rhand -17.4164 0.916724
rfingers 7.12502
rthumb 8.83355 -28.8784
lclavicle 2.5842e-015 6.75868e-015
lhumerus -21.6894 -7.66417 81.521
lradius 50.0885
lwrist 8.7114
lhand -36.7496 16.1575
lfingers 7.12502
lthumb -9.83309 45.9079
rfemur -20.8251 -10.4146 27.9215
rtibia 37.5043
rfoot -37.0033 -30.8884
rtoes -8.41882
lfemur 2.86683 6.27363 -28.7937
ltibia 23.4176
lfoot -33.2033 29.9626
ltoes 8.81013
272
root -4.59829 15.2424 1.35804 177.685 25.0996 -183.976
lowerback 2.9771 0.51339 -5.51266
upperback 4.71226 0.998209 -2.17584
thorax 3.15866 0.48702 0.844841
lowerneck -7.84855 -3.15056 -0.467905
upperneck 18.9075 -4.69486 5.96172
head 7.23672 -1.47924 1.64667
rclavicle 2.70347e-014 5.96354e-015
rhumerus -33.2682 6.18874 -91.1857
rradius 35.4318
rwrist -19.2456
rhand -17.693 1.01284
rfingers 7.12502
rthumb 8.56659 -28.7934
lclavicle 2.70347e-014 5.96354e-015
lhumerus -21.6271 -9.9749 82.4382
lradius 49.3351
lwrist 7.97595
lhand -35.0936 14.6909
lfingers 7.12502
lthumb -8.23512 44.5104
rfemur -20.615 -10.2729 27.9718
rtibia 36.6838
rfoot -37.2246 -32.2486
rtoes -9.66047
lfemur 2.56429 8.4566 -29.1138
ltibia 24.415
lfoot -32.2873 29.2779
ltoes 7.54095
273
root -4.60087 15.2201 1.28936 177.273 26.9479 -184.831
lowerback 2.7803 0.467324 -5.75175
upperback 4.66885 0.950207 -2.33554
thorax 3.22844 0.456418 0.81534
lowerneck -8.19207 -3.11756 -1.37685
upperneck 19.1935 -4.62238 6.37217
head 7.41843 -1.46561 1.93604
rclavicle 4.05521e-014 -2.62396e-014
rhumerus -33.295 5.68786 -91.1152
rradius 35.0544
rwrist -18.8699
rhand -18.1999 1.12254
rfingers 7.12502
rthumb 8.07738 -28.7031
lclavicle 4.05521e-014 -2.62396e-014
lhumerus -21.6777 -12.1604 83.3281
lradius 48.6815
lwrist 7.18872
lhand -32.4869 13.0762
lfingers 7.12502
lthumb -5.71885 42.979
rfemur -20.3864 -9.3255 27.5693
rtibia 36.1196
rfoot -37.9947 -33.217
rtoes -8.84472
lfemur 2.19957 10.6837 -29.5253
ltibia 25.6135
lfoot -30.8839 28.8031
ltoes 3.82772
274
root -4.59927 15.1896 1.22243 176.494 28.5523 -186.211
lowerback 2.7214 0.354545 -6.45292
upperback 4.64036 0.817674 -2.57329
thorax 3.24255 0.377146 0.959937
lowerneck -8.17604 -3.16485 -0.555087
upperneck 19.0571 -4.68635 5.57383
head 7.33563 -1.52466 1.52988
rclavicle -4.90004e-014 -3.89618e-014
rhumerus -33.3608 5.60748 -91.0661
rradius 34.7644
rwrist -18.6798
rhand -18.4724 1.08428
rfingers 7.12502
rthumb 7.81444 -28.7513
lclavicle -4.90004e-014 -3.89618e-014
lhumerus -21.8738 -13.8063 84.2018
lradius 48.1973
lwrist 6.20861
lhand -29.2839 10.9217
lfingers 7.12502
lthumb -2.6259 40.8853
rfemur -20.0204 -7.77049 26.4817
rtibia 35.7903
rfoot -39.8973 -33.069
rtoes -3.49403
lfemur 1.77452 12.8094 -30.318
ltibia 27.1357
lfoot -29.1801 28.2478
ltoes -0.462359
275
root -4.59344 15.1637 1.15033 175.305 30.0745 -187.944
lowerback 2.81769 0.198326 -7.43049
upperback 4.64388 0.625107 -2.8326
thorax 3.21201 0.265079 1.233
lowerneck -8.27211 -3.07992 -0.716986
upperneck 19.0944 -4.5544 5.51211
head 7.36225 -1.48427 1.54653
rclavicle 1.22253e-014 5.1684e-014
rhumerus -33.526 6.06201 -91.0602
rradius 34.5418
rwrist -18.4398
rhand -18.578 1.12246
rfingers 7.12502
rthumb 7.7125 -28.7169
lclavicle 1.22253e-014 5.1684e-014
lhumerus -22.1968 -14.5782 85.085
lradius 47.7998
lwrist 4.49803
lhand -25.2153 8.90561
lfingers 7.12502
lthumb 1.30364 38.8814
rfemur -19.2798 -5.51013 24.966
rtibia 35.5402
rfoot -43.7075 -31.5351
rtoes 7.56107
lfemur 1.34158 14.8251 -31.2964
ltibia 29.1607
lfoot -27.5323 27.3622
ltoes -3.51375
